<svg width="501" height="364" viewBox="0 0 501 364" fill="none" xmlns="http://www.w3.org/2000/svg">
<g clip-path="url(#clip0_203_240)">
<path d="M291.749 64.2815C301.12 64.2815 308.717 56.6849 308.717 47.314C308.717 37.9431 301.12 30.3465 291.749 30.3465C282.378 30.3465 274.782 37.9431 274.782 47.314C274.782 56.6849 282.378 64.2815 291.749 64.2815Z" fill="#F2F2F2"/>
<path d="M423.372 316.099C448.592 296.889 460.638 264.609 453.096 233.817C452.909 233.051 452.711 232.288 452.503 231.527C447.504 213.248 435.135 195.876 417.108 190.036C401.971 185.132 385.449 188.903 369.657 186.953C338.658 183.125 314.625 158.043 297.715 131.782C280.805 105.521 267.809 76.1254 245.339 54.4299C208.301 18.6687 147.882 10.9692 101.96 34.2471C56.038 57.5251 26.7861 109.169 28.0336 160.639C29.2812 212.109 59.8365 261.318 104.21 287.426C120.512 297.017 139.366 303.812 158.129 301.434C174.41 299.371 189.203 290.623 205.407 288.026C230.884 283.943 256.198 295.461 278.233 308.884C300.269 322.307 321.553 338.218 346.594 344.44C370.908 350.483 401.03 333.115 423.372 316.099Z" fill="#F2F2F2"/>
<path d="M387.136 35.3279C386.583 34.9594 386.024 34.6099 385.471 34.254C369.49 24.033 352.36 15.7295 334.437 9.51516L330.281 66.8472H303.934V1.14603C302.275 0.802881 300.604 0.478792 298.933 0.173767V66.8472H267.623C250.387 66.8472 233.857 60.0001 221.669 47.8123C209.481 35.6244 202.634 19.0941 202.634 1.85783C200.956 2.22005 199.291 2.60763 197.626 3.02069V66.8472H172.125L168.166 12.1778C149.747 19.2419 132.26 28.5314 116.096 39.8398C115.816 40.0304 115.536 40.2274 115.263 40.4181C113.859 41.403 112.473 42.4071 111.094 43.4238V262.146H186.251L184.923 243.749L177.615 142.741H324.784L317.476 243.749L316.148 262.146H390.472V37.5394C389.366 36.7895 388.254 36.0524 387.136 35.3279ZM197.626 126.06H176.408L172.487 71.8547H197.626V126.06ZM298.933 126.06H263.296V124.986C263.296 124.47 263.194 123.959 262.996 123.482C262.799 123.005 262.509 122.572 262.143 122.207C261.778 121.842 261.344 121.553 260.867 121.356C260.39 121.159 259.878 121.058 259.362 121.059H243.869C243.354 121.059 242.843 121.16 242.366 121.358C241.89 121.555 241.457 121.844 241.092 122.209C240.727 122.574 240.438 123.007 240.241 123.483C240.044 123.96 239.942 124.471 239.942 124.986V126.06H202.634V71.8547H298.933V126.06ZM303.934 126.06V71.8547H329.918L325.998 126.06H303.934Z" fill="#2F2C56"/>
<path d="M0.5 276.152C6.02048 282.694 11.9915 288.841 18.3694 294.549L482.631 295.185C489.008 289.476 494.979 283.329 500.5 276.788L0.5 276.152Z" fill="#2F2C56"/>
<path d="M315.331 217.245V271.707C315.331 272.401 315.607 273.066 316.098 273.557C316.589 274.048 317.254 274.324 317.948 274.324H398.656C399.35 274.324 400.015 274.048 400.506 273.557C400.997 273.066 401.273 272.401 401.273 271.707V217.245C401.271 216.551 400.995 215.887 400.504 215.397C400.014 214.907 399.349 214.631 398.656 214.63H317.948C317.255 214.631 316.59 214.907 316.099 215.397C315.609 215.887 315.332 216.551 315.331 217.245Z" fill="#2F2C56"/>
<path d="M317.224 217.922V271.035C317.225 271.406 317.372 271.761 317.634 272.024C317.897 272.286 318.252 272.433 318.623 272.434H397.984C398.355 272.433 398.71 272.286 398.972 272.024C399.234 271.761 399.382 271.406 399.383 271.035V217.922C399.383 217.551 399.235 217.195 398.973 216.932C398.711 216.669 398.355 216.521 397.984 216.521H318.623C318.252 216.521 317.896 216.669 317.633 216.932C317.371 217.195 317.224 217.551 317.224 217.922Z" fill="#21D8F1"/>
<path d="M313.643 282.328C313.79 282.514 313.978 282.663 314.192 282.766C314.406 282.868 314.64 282.921 314.878 282.919H401.296C401.533 282.919 401.766 282.866 401.979 282.764C402.193 282.663 402.38 282.514 402.529 282.331C402.678 282.147 402.784 281.933 402.84 281.703C402.896 281.474 402.899 281.234 402.851 281.003L401.509 274.631C401.454 274.371 401.334 274.129 401.161 273.928C400.988 273.726 400.767 273.571 400.519 273.476C400.339 273.405 400.148 273.369 399.955 273.369H316.214C316.021 273.369 315.829 273.405 315.649 273.476C315.401 273.57 315.18 273.726 315.008 273.928C314.835 274.129 314.715 274.371 314.659 274.631L313.318 281.003C313.27 281.234 313.275 281.473 313.331 281.702C313.387 281.932 313.493 282.146 313.643 282.328Z" fill="#222044"/>
<path d="M396.99 276.114H399.031C399.202 276.114 399.341 275.975 399.341 275.804V274.827C399.341 274.656 399.202 274.517 399.031 274.517H396.99C396.818 274.517 396.679 274.656 396.679 274.827V275.804C396.679 275.975 396.818 276.114 396.99 276.114Z" fill="#2F2C56"/>
<path d="M391.666 276.114H393.708C393.879 276.114 394.018 275.975 394.018 275.804V274.827C394.018 274.656 393.879 274.517 393.708 274.517H391.666C391.495 274.517 391.356 274.656 391.356 274.827V275.804C391.356 275.975 391.495 276.114 391.666 276.114Z" fill="#2F2C56"/>
<path d="M386.343 276.114H388.384C388.556 276.114 388.694 275.975 388.694 275.804V274.827C388.694 274.656 388.556 274.517 388.384 274.517H386.343C386.172 274.517 386.033 274.656 386.033 274.827V275.804C386.033 275.975 386.172 276.114 386.343 276.114Z" fill="#2F2C56"/>
<path d="M381.02 276.114H383.061C383.232 276.114 383.371 275.975 383.371 275.804V274.827C383.371 274.656 383.232 274.517 383.061 274.517H381.02C380.848 274.517 380.709 274.656 380.709 274.827V275.804C380.709 275.975 380.848 276.114 381.02 276.114Z" fill="#2F2C56"/>
<path d="M375.696 276.114H377.738C377.909 276.114 378.048 275.975 378.048 275.804V274.827C378.048 274.656 377.909 274.517 377.738 274.517H375.696C375.525 274.517 375.386 274.656 375.386 274.827V275.804C375.386 275.975 375.525 276.114 375.696 276.114Z" fill="#2F2C56"/>
<path d="M370.373 276.114H372.414C372.586 276.114 372.724 275.975 372.724 275.804V274.827C372.724 274.656 372.586 274.517 372.414 274.517H370.373C370.202 274.517 370.063 274.656 370.063 274.827V275.804C370.063 275.975 370.202 276.114 370.373 276.114Z" fill="#2F2C56"/>
<path d="M365.05 276.114H367.091C367.262 276.114 367.401 275.975 367.401 275.804V274.827C367.401 274.656 367.262 274.517 367.091 274.517H365.05C364.878 274.517 364.739 274.656 364.739 274.827V275.804C364.739 275.975 364.878 276.114 365.05 276.114Z" fill="#2F2C56"/>
<path d="M359.726 276.114H361.768C361.939 276.114 362.078 275.975 362.078 275.804V274.827C362.078 274.656 361.939 274.517 361.768 274.517H359.726C359.555 274.517 359.416 274.656 359.416 274.827V275.804C359.416 275.975 359.555 276.114 359.726 276.114Z" fill="#2F2C56"/>
<path d="M354.403 276.114H356.444C356.616 276.114 356.755 275.975 356.755 275.804V274.827C356.755 274.656 356.616 274.517 356.444 274.517H354.403C354.232 274.517 354.093 274.656 354.093 274.827V275.804C354.093 275.975 354.232 276.114 354.403 276.114Z" fill="#2F2C56"/>
<path d="M349.08 276.114H351.121C351.292 276.114 351.431 275.975 351.431 275.804V274.827C351.431 274.656 351.292 274.517 351.121 274.517H349.08C348.909 274.517 348.77 274.656 348.77 274.827V275.804C348.77 275.975 348.909 276.114 349.08 276.114Z" fill="#2F2C56"/>
<path d="M343.756 276.114H345.798C345.969 276.114 346.108 275.975 346.108 275.804V274.827C346.108 274.656 345.969 274.517 345.798 274.517H343.756C343.585 274.517 343.446 274.656 343.446 274.827V275.804C343.446 275.975 343.585 276.114 343.756 276.114Z" fill="#2F2C56"/>
<path d="M338.433 276.114H340.474C340.646 276.114 340.785 275.975 340.785 275.804V274.827C340.785 274.656 340.646 274.517 340.474 274.517H338.433C338.262 274.517 338.123 274.656 338.123 274.827V275.804C338.123 275.975 338.262 276.114 338.433 276.114Z" fill="#2F2C56"/>
<path d="M333.11 276.114H335.151C335.322 276.114 335.461 275.975 335.461 275.804V274.827C335.461 274.656 335.322 274.517 335.151 274.517H333.11C332.939 274.517 332.8 274.656 332.8 274.827V275.804C332.8 275.975 332.939 276.114 333.11 276.114Z" fill="#2F2C56"/>
<path d="M327.787 276.114H329.828C329.999 276.114 330.138 275.975 330.138 275.804V274.827C330.138 274.656 329.999 274.517 329.828 274.517H327.787C327.615 274.517 327.476 274.656 327.476 274.827V275.804C327.476 275.975 327.615 276.114 327.787 276.114Z" fill="#2F2C56"/>
<path d="M322.463 276.114H324.504C324.676 276.114 324.815 275.975 324.815 275.804V274.827C324.815 274.656 324.676 274.517 324.504 274.517H322.463C322.292 274.517 322.153 274.656 322.153 274.827V275.804C322.153 275.975 322.292 276.114 322.463 276.114Z" fill="#2F2C56"/>
<path d="M317.14 276.114H319.181C319.352 276.114 319.491 275.975 319.491 275.804V274.827C319.491 274.656 319.352 274.517 319.181 274.517H317.14C316.969 274.517 316.83 274.656 316.83 274.827V275.804C316.83 275.975 316.969 276.114 317.14 276.114Z" fill="#2F2C56"/>
<path d="M397.053 278.776H399.094C399.265 278.776 399.404 278.637 399.404 278.465V277.489C399.404 277.318 399.265 277.179 399.094 277.179H397.053C396.881 277.179 396.742 277.318 396.742 277.489V278.465C396.742 278.637 396.881 278.776 397.053 278.776Z" fill="#2F2C56"/>
<path d="M391.729 278.776H393.77C393.942 278.776 394.081 278.637 394.081 278.465V277.489C394.081 277.318 393.942 277.179 393.77 277.179H391.729C391.558 277.179 391.419 277.318 391.419 277.489V278.465C391.419 278.637 391.558 278.776 391.729 278.776Z" fill="#2F2C56"/>
<path d="M386.406 278.776H388.447C388.618 278.776 388.757 278.637 388.757 278.465V277.489C388.757 277.318 388.618 277.179 388.447 277.179H386.406C386.235 277.179 386.096 277.318 386.096 277.489V278.465C386.096 278.637 386.235 278.776 386.406 278.776Z" fill="#2F2C56"/>
<path d="M381.083 278.776H383.124C383.295 278.776 383.434 278.637 383.434 278.465V277.489C383.434 277.318 383.295 277.179 383.124 277.179H381.083C380.911 277.179 380.772 277.318 380.772 277.489V278.465C380.772 278.637 380.911 278.776 381.083 278.776Z" fill="#2F2C56"/>
<path d="M375.759 278.776H377.801C377.972 278.776 378.111 278.637 378.111 278.465V277.489C378.111 277.318 377.972 277.179 377.801 277.179H375.759C375.588 277.179 375.449 277.318 375.449 277.489V278.465C375.449 278.637 375.588 278.776 375.759 278.776Z" fill="#2F2C56"/>
<path d="M370.436 278.776H372.477C372.648 278.776 372.787 278.637 372.787 278.465V277.489C372.787 277.318 372.648 277.179 372.477 277.179H370.436C370.265 277.179 370.126 277.318 370.126 277.489V278.465C370.126 278.637 370.265 278.776 370.436 278.776Z" fill="#2F2C56"/>
<path d="M365.113 278.776H367.154C367.325 278.776 367.464 278.637 367.464 278.465V277.489C367.464 277.318 367.325 277.179 367.154 277.179H365.113C364.941 277.179 364.802 277.318 364.802 277.489V278.465C364.802 278.637 364.941 278.776 365.113 278.776Z" fill="#2F2C56"/>
<path d="M359.789 278.776H361.83C362.002 278.776 362.141 278.637 362.141 278.465V277.489C362.141 277.318 362.002 277.179 361.83 277.179H359.789C359.618 277.179 359.479 277.318 359.479 277.489V278.465C359.479 278.637 359.618 278.776 359.789 278.776Z" fill="#2F2C56"/>
<path d="M354.466 278.776H356.507C356.679 278.776 356.817 278.637 356.817 278.465V277.489C356.817 277.318 356.679 277.179 356.507 277.179H354.466C354.295 277.179 354.156 277.318 354.156 277.489V278.465C354.156 278.637 354.295 278.776 354.466 278.776Z" fill="#2F2C56"/>
<path d="M349.143 278.776H351.184C351.355 278.776 351.494 278.637 351.494 278.465V277.489C351.494 277.318 351.355 277.179 351.184 277.179H349.143C348.971 277.179 348.832 277.318 348.832 277.489V278.465C348.832 278.637 348.971 278.776 349.143 278.776Z" fill="#2F2C56"/>
<path d="M343.819 278.776H345.861C346.032 278.776 346.171 278.637 346.171 278.465V277.489C346.171 277.318 346.032 277.179 345.861 277.179H343.819C343.648 277.179 343.509 277.318 343.509 277.489V278.465C343.509 278.637 343.648 278.776 343.819 278.776Z" fill="#2F2C56"/>
<path d="M338.496 278.776H340.537C340.709 278.776 340.848 278.637 340.848 278.465V277.489C340.848 277.318 340.709 277.179 340.537 277.179H338.496C338.325 277.179 338.186 277.318 338.186 277.489V278.465C338.186 278.637 338.325 278.776 338.496 278.776Z" fill="#2F2C56"/>
<path d="M333.173 278.776H335.214C335.385 278.776 335.524 278.637 335.524 278.465V277.489C335.524 277.318 335.385 277.179 335.214 277.179H333.173C333.001 277.179 332.863 277.318 332.863 277.489V278.465C332.863 278.637 333.001 278.776 333.173 278.776Z" fill="#2F2C56"/>
<path d="M327.849 278.776H329.891C330.062 278.776 330.201 278.637 330.201 278.465V277.489C330.201 277.318 330.062 277.179 329.891 277.179H327.849C327.678 277.179 327.539 277.318 327.539 277.489V278.465C327.539 278.637 327.678 278.776 327.849 278.776Z" fill="#2F2C56"/>
<path d="M322.526 278.776H324.567C324.739 278.776 324.878 278.637 324.878 278.465V277.489C324.878 277.318 324.739 277.179 324.567 277.179H322.526C322.355 277.179 322.216 277.318 322.216 277.489V278.465C322.216 278.637 322.355 278.776 322.526 278.776Z" fill="#2F2C56"/>
<path d="M317.203 278.776H319.244C319.415 278.776 319.554 278.637 319.554 278.465V277.489C319.554 277.318 319.415 277.179 319.244 277.179H317.203C317.032 277.179 316.893 277.318 316.893 277.489V278.465C316.893 278.637 317.032 278.776 317.203 278.776Z" fill="#2F2C56"/>
<path d="M352.869 281.97H373.542C373.713 281.97 373.852 281.831 373.852 281.659V280.683C373.852 280.512 373.713 280.373 373.542 280.373H352.869C352.698 280.373 352.559 280.512 352.559 280.683V281.659C352.559 281.831 352.698 281.97 352.869 281.97Z" fill="#2F2C56"/>
<path d="M330.967 228.14H329.16C328.612 228.14 328.168 228.584 328.168 229.132C328.168 229.68 328.612 230.124 329.16 230.124H330.967C331.515 230.124 331.959 229.68 331.959 229.132C331.959 228.584 331.515 228.14 330.967 228.14Z" fill="white"/>
<path d="M351.634 228.14H349.827C349.279 228.14 348.835 228.584 348.835 229.132C348.835 229.68 349.279 230.124 349.827 230.124H351.634C352.182 230.124 352.626 229.68 352.626 229.132C352.626 228.584 352.182 228.14 351.634 228.14Z" fill="white"/>
<path d="M357.49 228.14H355.683C355.135 228.14 354.691 228.584 354.691 229.132C354.691 229.68 355.135 230.124 355.683 230.124H357.49C358.038 230.124 358.482 229.68 358.482 229.132C358.482 228.584 358.038 228.14 357.49 228.14Z" fill="white"/>
<path d="M346.013 227.975H334.781C334.233 227.975 333.789 228.419 333.789 228.967C333.789 229.515 334.233 229.959 334.781 229.959H346.013C346.56 229.959 347.005 229.515 347.005 228.967C347.005 228.419 346.56 227.975 346.013 227.975Z" fill="white"/>
<path d="M373.569 227.975H362.338C361.79 227.975 361.346 228.419 361.346 228.967C361.346 229.515 361.79 229.959 362.338 229.959H373.569C374.117 229.959 374.561 229.515 374.561 228.967C374.561 228.419 374.117 227.975 373.569 227.975Z" fill="white"/>
<path d="M336.478 232.618H334.671C334.123 232.618 333.679 233.062 333.679 233.61C333.679 234.158 334.123 234.602 334.671 234.602H336.478C337.026 234.602 337.47 234.158 337.47 233.61C337.47 233.062 337.026 232.618 336.478 232.618Z" fill="white"/>
<path d="M357.146 232.618H355.338C354.791 232.618 354.346 233.062 354.346 233.61C354.346 234.158 354.791 234.602 355.338 234.602H357.146C357.693 234.602 358.138 234.158 358.138 233.61C358.138 233.062 357.693 232.618 357.146 232.618Z" fill="white"/>
<path d="M363.001 232.618H361.194C360.646 232.618 360.202 233.062 360.202 233.61C360.202 234.158 360.646 234.602 361.194 234.602H363.001C363.549 234.602 363.993 234.158 363.993 233.61C363.993 233.062 363.549 232.618 363.001 232.618Z" fill="white"/>
<path d="M351.524 232.453H340.293C339.745 232.453 339.301 232.897 339.301 233.445C339.301 233.993 339.745 234.437 340.293 234.437H351.524C352.072 234.437 352.516 233.993 352.516 233.445C352.516 232.897 352.072 232.453 351.524 232.453Z" fill="white"/>
<path d="M379.08 232.453H367.849C367.301 232.453 366.857 232.897 366.857 233.445C366.857 233.993 367.301 234.437 367.849 234.437H379.08C379.628 234.437 380.072 233.993 380.072 233.445C380.072 232.897 379.628 232.453 379.08 232.453Z" fill="white"/>
<path d="M341.989 237.096H340.182C339.635 237.096 339.19 237.54 339.19 238.088C339.19 238.636 339.635 239.08 340.182 239.08H341.989C342.537 239.08 342.982 238.636 342.982 238.088C342.982 237.54 342.537 237.096 341.989 237.096Z" fill="white"/>
<path d="M362.657 237.096H360.85C360.302 237.096 359.858 237.54 359.858 238.088C359.858 238.636 360.302 239.08 360.85 239.08H362.657C363.205 239.08 363.649 238.636 363.649 238.088C363.649 237.54 363.205 237.096 362.657 237.096Z" fill="white"/>
<path d="M368.513 237.096H366.706C366.158 237.096 365.714 237.54 365.714 238.088C365.714 238.636 366.158 239.08 366.706 239.08H368.513C369.06 239.08 369.505 238.636 369.505 238.088C369.505 237.54 369.06 237.096 368.513 237.096Z" fill="white"/>
<path d="M357.035 236.931H345.804C345.256 236.931 344.812 237.375 344.812 237.923C344.812 238.471 345.256 238.915 345.804 238.915H357.035C357.583 238.915 358.027 238.471 358.027 237.923C358.027 237.375 357.583 236.931 357.035 236.931Z" fill="white"/>
<path d="M384.592 236.931H373.36C372.813 236.931 372.368 237.375 372.368 237.923C372.368 238.471 372.813 238.915 373.36 238.915H384.592C385.14 238.915 385.584 238.471 385.584 237.923C385.584 237.375 385.14 236.931 384.592 236.931Z" fill="white"/>
<path d="M347.501 241.574H345.694C345.146 241.574 344.702 242.018 344.702 242.566C344.702 243.114 345.146 243.558 345.694 243.558H347.501C348.049 243.558 348.493 243.114 348.493 242.566C348.493 242.018 348.049 241.574 347.501 241.574Z" fill="white"/>
<path d="M368.168 241.574H366.361C365.813 241.574 365.369 242.018 365.369 242.566C365.369 243.114 365.813 243.558 366.361 243.558H368.168C368.716 243.558 369.16 243.114 369.16 242.566C369.16 242.018 368.716 241.574 368.168 241.574Z" fill="white"/>
<path d="M374.024 241.574H372.217C371.669 241.574 371.225 242.018 371.225 242.566C371.225 243.114 371.669 243.558 372.217 243.558H374.024C374.572 243.558 375.016 243.114 375.016 242.566C375.016 242.018 374.572 241.574 374.024 241.574Z" fill="white"/>
<path d="M362.547 241.409H351.315C350.767 241.409 350.323 241.853 350.323 242.401C350.323 242.949 350.767 243.393 351.315 243.393H362.547C363.094 243.393 363.539 242.949 363.539 242.401C363.539 241.853 363.094 241.409 362.547 241.409Z" fill="white"/>
<path d="M351.634 259.38H349.827C349.279 259.38 348.835 259.824 348.835 260.372C348.835 260.92 349.279 261.364 349.827 261.364H351.634C352.182 261.364 352.626 260.92 352.626 260.372C352.626 259.824 352.182 259.38 351.634 259.38Z" fill="white"/>
<path d="M357.49 259.38H355.683C355.135 259.38 354.691 259.824 354.691 260.372C354.691 260.92 355.135 261.364 355.683 261.364H357.49C358.038 261.364 358.482 260.92 358.482 260.372C358.482 259.824 358.038 259.38 357.49 259.38Z" fill="white"/>
<path d="M373.569 259.546H362.338C361.79 259.546 361.346 259.99 361.346 260.538C361.346 261.086 361.79 261.53 362.338 261.53H373.569C374.117 261.53 374.561 261.086 374.561 260.538C374.561 259.99 374.117 259.546 373.569 259.546Z" fill="white"/>
<path d="M330.967 259.38H329.16C328.612 259.38 328.168 259.824 328.168 260.372C328.168 260.92 328.612 261.364 329.16 261.364H330.967C331.515 261.364 331.959 260.92 331.959 260.372C331.959 259.824 331.515 259.38 330.967 259.38Z" fill="white"/>
<path d="M346.013 259.546H334.781C334.233 259.546 333.789 259.99 333.789 260.538C333.789 261.086 334.233 261.53 334.781 261.53H346.013C346.56 261.53 347.005 261.086 347.005 260.538C347.005 259.99 346.56 259.546 346.013 259.546Z" fill="white"/>
<path d="M336.478 254.902H334.671C334.123 254.902 333.679 255.346 333.679 255.894C333.679 256.442 334.123 256.886 334.671 256.886H336.478C337.026 256.886 337.47 256.442 337.47 255.894C337.47 255.346 337.026 254.902 336.478 254.902Z" fill="white"/>
<path d="M357.146 254.902H355.338C354.791 254.902 354.346 255.346 354.346 255.894C354.346 256.442 354.791 256.886 355.338 256.886H357.146C357.693 256.886 358.138 256.442 358.138 255.894C358.138 255.346 357.693 254.902 357.146 254.902Z" fill="white"/>
<path d="M363.001 254.902H361.194C360.646 254.902 360.202 255.346 360.202 255.894C360.202 256.442 360.646 256.886 361.194 256.886H363.001C363.549 256.886 363.993 256.442 363.993 255.894C363.993 255.346 363.549 254.902 363.001 254.902Z" fill="white"/>
<path d="M351.524 255.068H340.293C339.745 255.068 339.301 255.512 339.301 256.06C339.301 256.608 339.745 257.052 340.293 257.052H351.524C352.072 257.052 352.516 256.608 352.516 256.06C352.516 255.512 352.072 255.068 351.524 255.068Z" fill="white"/>
<path d="M341.989 250.424H340.182C339.635 250.424 339.19 250.868 339.19 251.416C339.19 251.964 339.635 252.408 340.182 252.408H341.989C342.537 252.408 342.982 251.964 342.982 251.416C342.982 250.868 342.537 250.424 341.989 250.424Z" fill="white"/>
<path d="M362.657 250.424H360.85C360.302 250.424 359.858 250.868 359.858 251.416C359.858 251.964 360.302 252.408 360.85 252.408H362.657C363.205 252.408 363.649 251.964 363.649 251.416C363.649 250.868 363.205 250.424 362.657 250.424Z" fill="white"/>
<path d="M368.513 250.424H366.706C366.158 250.424 365.714 250.868 365.714 251.416C365.714 251.964 366.158 252.408 366.706 252.408H368.513C369.06 252.408 369.505 251.964 369.505 251.416C369.505 250.868 369.06 250.424 368.513 250.424Z" fill="white"/>
<path d="M357.035 250.59H345.804C345.256 250.59 344.812 251.034 344.812 251.582C344.812 252.13 345.256 252.574 345.804 252.574H357.035C357.583 252.574 358.027 252.13 358.027 251.582C358.027 251.034 357.583 250.59 357.035 250.59Z" fill="white"/>
<path d="M347.501 245.946H345.694C345.146 245.946 344.702 246.391 344.702 246.938C344.702 247.486 345.146 247.93 345.694 247.93H347.501C348.049 247.93 348.493 247.486 348.493 246.938C348.493 246.391 348.049 245.946 347.501 245.946Z" fill="white"/>
<path d="M368.168 245.946H366.361C365.813 245.946 365.369 246.391 365.369 246.938C365.369 247.486 365.813 247.93 366.361 247.93H368.168C368.716 247.93 369.16 247.486 369.16 246.938C369.16 246.391 368.716 245.946 368.168 245.946Z" fill="white"/>
<path d="M374.024 245.946H372.217C371.669 245.946 371.225 246.391 371.225 246.938C371.225 247.486 371.669 247.93 372.217 247.93H374.024C374.572 247.93 375.016 247.486 375.016 246.938C375.016 246.391 374.572 245.946 374.024 245.946Z" fill="white"/>
<path d="M362.547 246.112H351.315C350.767 246.112 350.323 246.556 350.323 247.104C350.323 247.652 350.767 248.096 351.315 248.096H362.547C363.094 248.096 363.539 247.652 363.539 247.104C363.539 246.556 363.094 246.112 362.547 246.112Z" fill="white"/>
<path d="M321.359 311.86L312.876 298.45L339.504 277.224L350.494 265.048C351.922 263.466 353.74 262.286 355.767 261.627C357.793 260.968 359.957 260.852 362.043 261.291C364.128 261.731 366.062 262.709 367.65 264.13C369.239 265.551 370.426 267.363 371.095 269.387C372.086 272.385 371.873 275.651 370.501 278.496C369.129 281.34 366.706 283.54 363.743 284.632L346.363 291.035L321.359 311.86Z" fill="#FFB6B6"/>
<path d="M122.313 214.633V279.806H167.972V214.633C167.972 214.164 167.823 213.707 167.545 213.33C167.267 212.952 166.875 212.674 166.427 212.536C166.216 212.466 165.995 212.431 165.773 212.434H124.518C124.229 212.433 123.943 212.49 123.675 212.6C123.408 212.71 123.165 212.872 122.96 213.076C122.755 213.28 122.593 213.523 122.482 213.79C122.371 214.057 122.313 214.343 122.313 214.633ZM140.132 237.026C140.144 235.742 140.662 234.513 141.575 233.609C142.488 232.705 143.721 232.197 145.006 232.197C146.291 232.197 147.524 232.705 148.436 233.609C149.349 234.513 149.868 235.742 149.88 237.026V244.589C149.873 245.877 149.357 247.11 148.443 248.019C147.53 248.928 146.294 249.438 145.006 249.438C143.717 249.438 142.481 248.928 141.568 248.019C140.655 247.11 140.138 245.877 140.132 244.589V237.026Z" fill="#222044"/>
<path d="M122.173 277.722V284.007C122.174 284.332 122.304 284.644 122.533 284.875C122.763 285.106 123.074 285.237 123.4 285.24H166.885C167.211 285.238 167.523 285.107 167.753 284.876C167.982 284.645 168.111 284.333 168.111 284.007V277.722H122.173Z" fill="#2F2C56"/>
<path d="M50.486 116.44V235.438C50.4872 236.954 51.0902 238.408 52.1625 239.481C53.2348 240.553 54.6888 241.156 56.2052 241.157H232.548C234.064 241.156 235.518 240.553 236.591 239.481C237.663 238.408 238.266 236.954 238.267 235.438V116.44C238.264 114.925 237.66 113.473 236.588 112.402C235.516 111.331 234.063 110.729 232.548 110.727H56.2052C54.6901 110.729 53.2375 111.331 52.1655 112.402C51.0936 113.473 50.4896 114.925 50.486 116.44Z" fill="#2F2C56"/>
<path d="M54.6229 117.92V233.97C54.6243 234.78 54.9468 235.557 55.5197 236.13C56.0926 236.703 56.8693 237.025 57.6795 237.026H231.08C231.89 237.025 232.667 236.703 233.24 236.13C233.813 235.557 234.135 234.78 234.137 233.97V117.92C234.137 117.109 233.815 116.331 233.242 115.757C232.669 115.183 231.891 114.859 231.08 114.857H57.6795C56.8683 114.859 56.0909 115.183 55.5179 115.757C54.9449 116.331 54.623 117.109 54.6229 117.92Z" fill="white"/>
<path d="M86.8031 284.814C86.9796 285.035 87.2039 285.214 87.4593 285.336C87.7146 285.458 87.9943 285.521 88.2774 285.519H191.439C191.722 285.519 192 285.456 192.255 285.334C192.509 285.213 192.734 285.036 192.911 284.817C193.089 284.598 193.216 284.342 193.282 284.067C193.349 283.793 193.353 283.508 193.295 283.232L191.694 275.625C191.627 275.315 191.484 275.026 191.278 274.785C191.072 274.544 190.808 274.359 190.512 274.246C190.297 274.162 190.069 274.119 189.838 274.119H89.8724C89.6419 274.119 89.4134 274.162 89.1988 274.246C88.9024 274.359 88.639 274.544 88.4325 274.785C88.2261 275.026 88.0832 275.315 88.0168 275.625L86.4155 283.232C86.3585 283.507 86.3637 283.793 86.4308 284.066C86.4978 284.34 86.625 284.595 86.8031 284.814Z" fill="#222044"/>
<path d="M225.453 130.844H63.2025C63.0338 130.84 62.8733 130.77 62.7554 130.65C62.6374 130.529 62.5714 130.367 62.5714 130.199C62.5714 130.03 62.6374 129.868 62.7554 129.747C62.8733 129.627 63.0338 129.557 63.2025 129.553H225.453C225.621 129.557 225.782 129.627 225.9 129.747C226.018 129.868 226.084 130.03 226.084 130.199C226.084 130.367 226.018 130.529 225.9 130.65C225.782 130.77 225.621 130.84 225.453 130.844Z" fill="#2F2C56"/>
<path d="M74.2471 126.259C76.3354 126.259 78.0284 124.528 78.0284 122.393C78.0284 120.259 76.3354 118.528 74.2471 118.528C72.1587 118.528 70.4658 120.259 70.4658 122.393C70.4658 124.528 72.1587 126.259 74.2471 126.259Z" fill="#2F2C56"/>
<path d="M87.3098 126.259C89.3981 126.259 91.0911 124.528 91.0911 122.393C91.0911 120.259 89.3981 118.528 87.3098 118.528C85.2214 118.528 83.5284 120.259 83.5284 122.393C83.5284 124.528 85.2214 126.259 87.3098 126.259Z" fill="#2F2C56"/>
<path d="M100.372 126.259C102.461 126.259 104.154 124.528 104.154 122.393C104.154 120.259 102.461 118.528 100.372 118.528C98.2841 118.528 96.5912 120.259 96.5912 122.393C96.5912 124.528 98.2841 126.259 100.372 126.259Z" fill="#2F2C56"/>
<path d="M217.587 119.484H208.309C208.125 119.488 207.951 119.564 207.823 119.695C207.695 119.826 207.623 120.002 207.623 120.186C207.623 120.369 207.695 120.546 207.823 120.677C207.951 120.808 208.125 120.884 208.309 120.888H217.587C217.771 120.886 217.947 120.81 218.077 120.679C218.206 120.548 218.279 120.37 218.279 120.186C218.279 120.001 218.206 119.824 218.077 119.693C217.947 119.561 217.771 119.486 217.587 119.484Z" fill="#2F2C56"/>
<path d="M217.587 122.121H208.309C208.125 122.125 207.951 122.201 207.822 122.332C207.694 122.463 207.622 122.64 207.622 122.823C207.622 123.007 207.694 123.183 207.822 123.314C207.951 123.446 208.125 123.521 208.309 123.525H217.587C217.771 123.523 217.948 123.448 218.078 123.317C218.208 123.185 218.281 123.008 218.281 122.823C218.281 122.638 218.208 122.461 218.078 122.33C217.948 122.198 217.771 122.123 217.587 122.121Z" fill="#2F2C56"/>
<path d="M217.587 124.758H208.309C208.125 124.762 207.951 124.838 207.823 124.969C207.695 125.101 207.623 125.277 207.623 125.46C207.623 125.644 207.695 125.82 207.823 125.951C207.951 126.082 208.125 126.158 208.309 126.162H217.587C217.771 126.16 217.947 126.085 218.077 125.953C218.206 125.822 218.279 125.645 218.279 125.46C218.279 125.276 218.206 125.099 218.077 124.967C217.947 124.836 217.771 124.761 217.587 124.758Z" fill="#2F2C56"/>
<path d="M441.259 280.48C441.539 281.295 442.07 282.001 442.776 282.495C443.482 282.99 444.326 283.248 445.188 283.232L462.023 282.799C462.891 282.782 463.73 282.485 464.415 281.951C465.1 281.418 465.594 280.677 465.823 279.84L468.206 254.366C469.051 254.748 469.971 254.938 470.899 254.919C471.705 254.899 472.499 254.72 473.236 254.393C473.973 254.066 474.638 253.597 475.194 253.012C475.749 252.428 476.184 251.74 476.474 250.988C476.764 250.235 476.902 249.433 476.882 248.627C476.862 247.821 476.683 247.027 476.356 246.29C476.029 245.553 475.56 244.888 474.976 244.333C474.391 243.777 473.703 243.342 472.951 243.052C472.199 242.762 471.397 242.624 470.591 242.644C470.22 242.643 469.85 242.681 469.487 242.759C469.093 242.332 468.614 241.993 468.08 241.762C467.547 241.532 466.971 241.416 466.39 241.422L440.494 242.091C440.28 242.099 440.066 242.125 439.856 242.17C439.288 242.276 438.749 242.502 438.276 242.834C437.803 243.165 437.406 243.594 437.113 244.092C436.819 244.59 436.636 245.144 436.575 245.719C436.514 246.293 436.577 246.874 436.759 247.422L441.259 280.48ZM468.694 252.636L470.389 246.565C470.582 245.864 470.587 245.125 470.402 244.421C470.485 244.421 470.557 244.382 470.639 244.382C471.802 244.358 472.926 244.795 473.766 245.599C474.606 246.403 475.093 247.507 475.12 248.669C475.148 249.832 474.713 250.957 473.911 251.799C473.11 252.642 472.007 253.132 470.845 253.162C470.094 253.185 469.35 253.004 468.694 252.636Z" fill="#222044"/>
<path d="M439.856 242.17C440.407 245.325 446.61 247.542 454.068 247.157C460.927 246.841 466.535 244.433 467.562 241.578C467.182 241.466 466.786 241.413 466.39 241.422L440.494 242.091C440.28 242.099 440.066 242.125 439.856 242.17Z" fill="#2F2C56"/>
<path d="M455.435 266.482C455.469 266.473 455.502 266.459 455.531 266.44L459.187 264.047C459.231 264.018 459.268 263.978 459.293 263.932C459.318 263.886 459.331 263.834 459.331 263.781C459.331 263.728 459.318 263.676 459.293 263.63C459.268 263.584 459.231 263.544 459.187 263.515L455.387 261.026C455.352 261.003 455.313 260.987 455.272 260.979C455.231 260.971 455.189 260.972 455.148 260.98C455.107 260.989 455.068 261.005 455.034 261.029C454.999 261.052 454.969 261.082 454.947 261.117C454.924 261.152 454.908 261.191 454.9 261.232C454.892 261.273 454.893 261.316 454.901 261.357C454.91 261.397 454.927 261.436 454.95 261.471C454.974 261.505 455.004 261.535 455.039 261.558L458.433 263.781L455.183 265.908C455.12 265.949 455.074 266.011 455.053 266.083C455.031 266.155 455.036 266.233 455.066 266.302C455.097 266.37 455.15 266.426 455.218 266.459C455.285 266.492 455.362 266.5 455.435 266.482Z" fill="#21D8F1"/>
<path d="M449.661 266.748C449.722 266.733 449.778 266.699 449.82 266.652C449.862 266.605 449.889 266.546 449.898 266.483C449.906 266.421 449.896 266.357 449.868 266.3C449.84 266.243 449.796 266.196 449.741 266.165L446.371 264.232L449.628 261.813C449.662 261.788 449.69 261.757 449.711 261.721C449.733 261.685 449.747 261.646 449.753 261.605C449.759 261.563 449.757 261.521 449.747 261.481C449.737 261.44 449.719 261.402 449.694 261.369C449.669 261.335 449.638 261.307 449.602 261.286C449.566 261.264 449.526 261.25 449.485 261.244C449.444 261.238 449.402 261.24 449.361 261.25C449.321 261.26 449.283 261.279 449.25 261.303L445.603 264.012C445.56 264.044 445.527 264.085 445.504 264.133C445.482 264.181 445.472 264.233 445.475 264.286C445.478 264.339 445.494 264.39 445.522 264.434C445.55 264.479 445.588 264.516 445.634 264.543L449.425 266.716C449.496 266.757 449.581 266.768 449.661 266.748Z" fill="#21D8F1"/>
<path d="M455.072 268.579C455.102 268.571 455.132 268.559 455.159 268.542C455.194 268.52 455.225 268.492 455.25 268.458C455.275 268.425 455.293 268.386 455.302 268.346C455.312 268.305 455.314 268.263 455.308 268.222C455.301 268.181 455.287 268.141 455.265 268.105L450.083 259.585C450.039 259.513 449.968 259.462 449.886 259.442C449.804 259.422 449.718 259.435 449.646 259.479C449.574 259.523 449.523 259.594 449.503 259.675C449.483 259.757 449.496 259.844 449.54 259.916L454.722 268.436C454.758 268.494 454.811 268.539 454.873 268.565C454.936 268.591 455.006 268.596 455.072 268.579Z" fill="#21D8F1"/>
<path d="M163.714 165.922H135.632C134.486 165.922 133.557 166.85 133.557 167.996V170.739C133.557 171.885 134.486 172.814 135.632 172.814H163.714C164.859 172.814 165.788 171.885 165.788 170.739V167.996C165.788 166.85 164.859 165.922 163.714 165.922Z" fill="#21D8F1"/>
<path d="M180.082 179.706H119.263C118.117 179.706 117.189 180.634 117.189 181.78V184.524C117.189 185.669 118.117 186.598 119.263 186.598H180.082C181.228 186.598 182.157 185.669 182.157 184.524V181.78C182.157 180.634 181.228 179.706 180.082 179.706Z" fill="#E6E6E6"/>
<path d="M180.082 193.49H119.263C118.117 193.49 117.189 194.419 117.189 195.564V198.308C117.189 199.453 118.117 200.382 119.263 200.382H180.082C181.228 200.382 182.157 199.453 182.157 198.308V195.564C182.157 194.419 181.228 193.49 180.082 193.49Z" fill="#E6E6E6"/>
<path d="M185.238 239.648L185.376 240.083L185.383 240.097L189.53 252.704L194.3 267.231L203.274 294.532L203.361 298.772V298.787L204.028 332.902L202.18 337.527L204.26 345.109C204.26 345.109 203.303 333.648 198.171 340.23C195.264 343.97 191.864 347.798 189.073 351.386C193.14 353.032 197.272 354.521 201.469 355.852C202.375 356.142 203.289 356.417 204.202 356.693C204.398 356.751 204.594 356.809 204.789 356.867C218.703 360.981 233.087 363.294 247.589 363.746C248.343 363.768 249.082 363.783 249.8 363.797C250.053 363.804 250.3 363.812 250.546 363.812C251.358 363.819 252.163 363.826 252.975 363.826C254.613 363.826 256.244 363.802 257.868 363.754C269.887 363.415 281.836 361.799 293.513 358.933C293.433 354.112 293.215 348.479 292.904 342.463C292.759 339.512 289.504 336.315 289.308 333.227C289.17 330.907 292.092 328.725 291.939 326.369C290.954 311.864 289.721 317.432 288.808 307.16C288.714 306.152 288.627 305.188 288.547 304.267C287.96 297.671 287.554 293.546 287.554 293.546L291.454 268.964L297.579 230.369L297.108 229.593L296.579 229.332L264.269 213.34L262.515 208.846C262.004 207.551 261.117 206.439 259.968 205.652C258.82 204.865 257.462 204.44 256.07 204.431L234.787 204.344C233.682 204.339 232.592 204.598 231.608 205.098C230.623 205.599 229.772 206.327 229.125 207.222L223.362 215.203L185.238 239.648Z" fill="#2F2C56"/>
<path d="M208.182 288.457L203.361 298.773L200.07 305.819L194.408 335.461L191.574 338.469L189.145 327.819L163.728 333.463C162.894 328.831 163.505 333.62 162.99 328.538C163.135 328.393 163.287 328.248 163.44 328.103C163.846 327.726 164.186 327.371 164.179 327.03C163.889 309.501 164.759 279.671 172.023 261.599C173.16 258.648 174.66 255.85 176.488 253.269C176.633 253.073 176.771 252.878 176.909 252.682C180.258 247.992 182.375 243.374 185.376 240.09V240.083C185.395 240.068 185.412 240.051 185.427 240.032C185.438 240.027 185.447 240.019 185.456 240.01L206.072 229.078L206.957 253.929L207.587 271.791L208.182 288.457Z" fill="#2F2C56"/>
<path d="M282.522 291.387L288.544 304.271L290.646 308.758L296.306 338.397L299.131 341.398L301.565 330.751L302.709 330.516L323.335 326.244L329.347 345.338C330.702 343.08 331.236 340.424 330.858 337.818C330.481 335.212 329.215 332.817 327.275 331.036C326.864 330.665 326.522 330.303 326.532 329.961C326.874 309.344 325.613 271.699 314.224 256.205C310.607 251.288 308.437 246.39 305.28 242.969C305.27 242.959 305.27 242.949 305.26 242.949L297.576 230.368L297.107 229.596L296.579 229.332L282.522 291.387Z" fill="#2F2C56"/>
<path d="M246.043 198.287C261.681 198.287 274.359 185.61 274.359 169.972C274.359 154.333 261.681 141.656 246.043 141.656C230.405 141.656 217.728 154.333 217.728 169.972C217.728 185.61 230.405 198.287 246.043 198.287Z" fill="#FFB6B6"/>
<path d="M284.315 150.193C284.095 149.959 283.831 149.771 283.537 149.641C283.243 149.511 282.927 149.442 282.605 149.437L283.031 148.255C283.17 147.883 283.208 147.48 283.14 147.089C283.072 146.697 282.901 146.331 282.645 146.027C282.389 145.723 282.057 145.493 281.683 145.359C281.308 145.226 280.905 145.195 280.515 145.268L278.964 145.567L279.11 144.531C279.166 144.146 279.121 143.752 278.979 143.389C278.836 143.026 278.602 142.706 278.299 142.461C277.996 142.216 277.634 142.055 277.249 141.992C276.864 141.929 276.47 141.968 276.105 142.104C275.772 142.235 275.415 142.289 275.058 142.264C274.702 142.239 274.356 142.134 274.046 141.958C273.734 141.787 273.463 141.55 273.252 141.263C273.042 140.977 272.896 140.648 272.826 140.299L272.285 137.694L272.228 137.554C269.597 133.169 264.539 129.979 258.35 128.81C252.84 127.761 247.191 128.295 241.745 128.797C239.584 129 237.144 129.229 235.11 130.475C233.382 131.542 231.92 133.678 232.219 135.832C226.849 134.186 221.092 137.471 218.239 141.614C214.858 146.546 214.305 152.723 214.216 157.552C213.975 168.978 216.332 178.326 221.206 185.341C221.562 185.85 221.651 186.911 222.357 187.267L222.21 187.031C222.998 187.425 223.799 188.061 223.5 188.741C222.642 190.698 228.343 195.026 232.359 196.456C239.686 199.067 249.428 198.845 256.278 197.904L256.519 196.284C258.991 195.947 260.733 195.305 261.222 194.301C262.086 193.564 262.823 192.903 263.465 192.293L263.471 192.287C263.484 192.274 263.51 192.255 263.522 192.242C266.617 189.275 267.335 187.584 267.659 185.011C267.971 182.488 267.418 179.927 266.852 177.62C278.761 179.463 262.162 164.936 273.258 162.127C273.385 162.088 273.514 162.056 273.645 162.032C273.969 161.956 274.293 161.88 274.605 161.791C276.106 161.383 277.543 160.769 278.875 159.967C281.976 158.08 282.999 155.576 284.601 152.754C284.832 152.353 284.929 151.888 284.877 151.427C284.826 150.966 284.629 150.534 284.315 150.193Z" fill="#222044"/>
<path d="M346.19 293.403C346.184 294.515 346.171 296.072 346.121 297.997C346.114 298.264 346.108 298.537 346.102 298.817C346.019 302.356 345.936 305.324 345.803 308.622C345.796 308.851 345.79 309.073 345.777 309.302C345.599 313.903 345.32 319.26 344.837 327.743C343.941 343.414 342.378 329.898 340.808 335.395C340.732 335.668 340.649 335.992 340.573 336.373C340.335 337.757 339.934 339.107 339.378 340.396C338.546 340.891 337.688 341.368 336.843 341.845C334.434 343.185 331.988 344.475 329.522 345.702C328.137 346.388 326.745 347.062 325.347 347.71C325.125 347.812 324.909 347.913 324.693 348.009C317.533 351.32 310.155 354.135 302.61 356.435C301.136 356.88 299.668 357.312 298.181 357.712C296.63 358.144 295.08 358.551 293.51 358.932C281.833 361.799 269.885 363.416 257.867 363.756C256.246 363.806 254.613 363.825 252.974 363.825C252.16 363.825 251.359 363.819 250.546 363.813C250.298 363.813 250.05 363.806 249.803 363.8C249.084 363.781 248.341 363.768 247.591 363.749C233.089 363.297 218.705 360.984 204.792 356.867L204.201 356.695C203.286 356.416 202.377 356.143 201.469 355.85C197.275 354.522 193.142 353.035 189.071 351.389C185.963 350.137 182.892 348.794 179.856 347.36C179.829 347.353 179.803 347.34 179.78 347.322C179.145 347.03 178.503 346.725 177.867 346.414C177.785 346.369 177.696 346.325 177.607 346.28C175.236 345.124 172.892 343.912 170.572 342.645C168.621 338.165 165.876 337.307 164.173 333.367C163.677 332.197 163.319 330.973 163.105 329.72C163.105 329.707 163.099 329.694 163.099 329.675C163.277 332.039 162.343 325.481 163.093 329.65C163.086 329.574 163.08 329.491 163.074 329.396C163.055 329.167 163.029 328.887 162.991 328.538C160.811 307.256 160.951 282.917 160.004 262.862C159.941 261.566 159.875 260.324 159.807 259.138C159.788 258.744 159.763 258.357 159.737 257.975C159.782 257.861 159.833 257.74 159.89 257.626C159.902 257.593 159.917 257.561 159.934 257.53C159.953 257.491 159.974 257.453 159.998 257.416C160.011 257.397 160.03 257.372 160.042 257.353C160.052 257.331 160.062 257.31 160.074 257.289C160.131 257.2 160.195 257.105 160.265 257.016C160.297 256.978 160.322 256.946 160.354 256.914C160.376 256.882 160.401 256.852 160.43 256.825C160.45 256.795 160.473 256.767 160.5 256.743C160.525 256.717 160.551 256.685 160.583 256.654C160.596 256.634 160.613 256.616 160.633 256.603C160.684 256.545 160.739 256.492 160.799 256.444C161.025 256.235 161.268 256.044 161.523 255.872C161.612 255.815 161.707 255.758 161.796 255.694C162.437 255.311 163.111 254.988 163.811 254.728C164.052 254.639 164.294 254.557 164.554 254.468C164.65 254.442 164.739 254.41 164.834 254.379C164.974 254.334 165.113 254.29 165.26 254.258C165.984 254.042 166.766 253.857 167.611 253.686C167.713 253.667 167.821 253.648 167.929 253.622C168.081 253.591 168.24 253.565 168.399 253.54C168.615 253.502 168.837 253.464 169.06 253.425C170.947 253.127 173.089 252.904 175.453 252.758C175.675 252.745 175.897 252.733 176.12 252.72C176.38 252.707 176.641 252.695 176.908 252.682C177.13 252.669 177.359 252.663 177.588 252.656C177.81 252.644 178.039 252.637 178.274 252.631C178.916 252.612 179.577 252.593 180.25 252.58C182.169 252.542 184.19 252.555 186.313 252.599C187.298 252.625 188.302 252.65 189.331 252.695C189.401 252.695 189.465 252.701 189.528 252.701C190.424 252.733 191.327 252.771 192.254 252.822C192.903 252.853 193.557 252.885 194.212 252.923C194.828 252.961 195.451 253 196.08 253.044C196.569 253.07 197.058 253.108 197.554 253.139C197.974 253.171 198.393 253.203 198.812 253.228L199.384 253.267C199.696 253.292 200.007 253.311 200.325 253.343C201.024 253.4 201.723 253.457 202.435 253.514C203.14 253.578 203.858 253.641 204.576 253.705C205.294 253.769 206.019 253.838 206.743 253.908C206.819 253.915 206.889 253.921 206.959 253.927C207.62 253.997 208.281 254.061 208.948 254.131C209.101 254.143 209.26 254.156 209.412 254.175C210.048 254.239 210.697 254.314 211.339 254.382C211.536 254.403 211.732 254.424 211.929 254.446C212.432 254.5 212.928 254.548 213.434 254.607C214.102 254.684 214.782 254.753 215.443 254.842C215.957 254.9 216.472 254.957 216.987 255.02C217.794 255.116 218.614 255.217 219.433 255.325C219.745 255.364 220.056 255.402 220.367 255.446C222.706 255.738 225.07 256.063 227.472 256.399C231.113 256.914 234.812 257.473 238.536 258.077C242.266 258.681 246.017 259.318 249.79 259.99C250.743 260.161 251.696 260.333 252.656 260.511C253.088 260.593 253.52 260.676 253.952 260.759C254.689 260.892 255.426 261.032 256.163 261.172C256.901 261.312 257.638 261.451 258.375 261.597C259.252 261.769 260.135 261.941 261.012 262.112C266.789 263.256 272.533 264.476 278.138 265.753C279.059 265.963 279.981 266.179 280.896 266.389C282.726 266.815 284.539 267.247 286.336 267.685C286.831 267.8 287.321 267.92 287.81 268.041C289.03 268.346 290.25 268.651 291.451 268.963L291.661 269.02C292.544 269.236 293.408 269.458 294.273 269.687C296.312 270.221 298.318 270.761 300.29 271.307C301.6 271.67 302.894 272.036 304.173 272.407C306.086 272.96 307.961 273.519 309.784 274.084C310.236 274.224 310.687 274.364 311.132 274.497C312.466 274.911 313.781 275.33 315.059 275.749C316.076 276.08 317.067 276.417 318.045 276.753C319.024 277.09 319.984 277.427 320.924 277.764C321.528 277.98 322.125 278.209 322.723 278.425C323.58 278.742 324.426 279.06 325.252 279.378C325.506 279.473 325.754 279.575 326.002 279.67C326.16 279.74 326.313 279.797 326.465 279.861C326.764 279.982 327.069 280.096 327.361 280.217C327.66 280.331 327.952 280.452 328.245 280.579C328.531 280.693 328.823 280.814 329.103 280.935C329.389 281.049 329.668 281.17 329.948 281.297C330.183 281.392 330.412 281.494 330.634 281.596C331.085 281.793 331.537 281.99 331.975 282.193C332.191 282.295 332.407 282.39 332.623 282.492L333.119 282.72C333.189 282.759 333.259 282.79 333.329 282.822C333.487 282.898 333.653 282.981 333.811 283.057C334.18 283.229 334.542 283.413 334.898 283.585C335.375 283.826 335.839 284.068 336.283 284.303C336.735 284.544 337.173 284.786 337.593 285.021C337.662 285.059 337.726 285.097 337.796 285.135C337.891 285.186 337.987 285.243 338.082 285.294C338.406 285.478 338.717 285.669 339.029 285.853C339.639 286.228 340.217 286.597 340.757 286.965C340.878 287.048 340.992 287.131 341.113 287.207C341.513 287.493 341.895 287.772 342.251 288.058C342.251 288.065 342.251 288.065 342.257 288.065C342.378 288.154 342.492 288.249 342.606 288.338C342.702 288.427 342.803 288.503 342.899 288.592C343.229 288.878 343.534 289.151 343.814 289.431C343.907 289.517 343.997 289.609 344.081 289.704C344.118 289.735 344.152 289.769 344.182 289.806C344.309 289.933 344.424 290.06 344.532 290.187C344.549 290.205 344.564 290.224 344.576 290.244C344.729 290.422 344.869 290.6 345.002 290.778C345.066 290.867 345.136 290.956 345.193 291.045C345.269 291.153 345.345 291.268 345.409 291.376C345.466 291.465 345.517 291.56 345.568 291.649C345.703 291.878 345.817 292.118 345.911 292.367C345.982 292.536 346.04 292.71 346.082 292.888C346.131 293.057 346.167 293.229 346.19 293.403Z" fill="#222044"/>
<path opacity="0.2" d="M346.19 293.403C346.184 294.515 346.171 296.072 346.121 297.997C346.114 298.264 346.101 298.537 346.095 298.817C346.032 301.518 345.936 304.854 345.803 308.622C345.796 308.851 345.79 309.073 345.777 309.302C345.599 313.903 345.32 319.26 344.837 327.743C343.941 343.414 342.378 329.898 340.808 335.395C336.449 332.713 331.67 329.904 326.561 327.019C325.639 326.498 324.709 325.975 323.771 325.449C313.553 319.749 302.14 313.776 290.225 307.86C289.754 307.625 289.278 307.389 288.808 307.161C261.514 293.67 231.723 280.547 207.588 271.79C202.93 270.1 198.482 268.575 194.3 267.234C185.493 264.419 177.88 262.449 172.021 261.597C165.92 260.708 161.707 261.026 160.004 262.862C159.941 261.566 159.875 260.324 159.807 259.138C159.782 258.744 159.756 258.357 159.731 257.975C159.77 257.871 159.821 257.771 159.87 257.67C159.878 257.655 159.883 257.64 159.89 257.626C159.902 257.593 159.917 257.561 159.934 257.53C159.953 257.491 159.974 257.453 159.998 257.416C160.019 257.371 160.044 257.328 160.074 257.289C160.131 257.2 160.195 257.105 160.265 257.016C160.316 256.949 160.371 256.885 160.43 256.825C160.449 256.795 160.473 256.767 160.5 256.742C160.525 256.717 160.551 256.685 160.582 256.653C160.596 256.633 160.613 256.616 160.633 256.603C160.684 256.545 160.739 256.492 160.799 256.444C161.025 256.235 161.267 256.044 161.523 255.872C161.612 255.815 161.707 255.757 161.796 255.694C162.437 255.311 163.111 254.988 163.811 254.728C164.052 254.639 164.294 254.556 164.554 254.467C164.649 254.442 164.738 254.41 164.834 254.379C164.974 254.334 165.113 254.29 165.26 254.258C165.984 254.042 166.766 253.857 167.611 253.686C167.865 253.635 168.132 253.584 168.399 253.54C168.615 253.502 168.837 253.463 169.06 253.425C170.947 253.127 173.089 252.904 175.452 252.758C175.675 252.745 175.897 252.733 176.12 252.72C176.38 252.707 176.641 252.695 176.908 252.682C177.13 252.669 177.359 252.663 177.588 252.656C177.81 252.644 178.039 252.637 178.274 252.631C178.916 252.612 179.577 252.593 180.25 252.58C182.169 252.548 184.19 252.561 186.313 252.606C187.298 252.625 188.302 252.656 189.331 252.701C189.395 252.701 189.465 252.707 189.528 252.707C190.424 252.733 191.333 252.777 192.254 252.822C192.902 252.853 193.557 252.885 194.211 252.923C194.828 252.961 195.451 253 196.08 253.044C196.569 253.069 197.058 253.108 197.554 253.139C197.973 253.171 198.393 253.203 198.812 253.228C199.314 253.266 199.816 253.305 200.325 253.343C201.024 253.4 201.723 253.457 202.434 253.514C203.14 253.578 203.858 253.641 204.576 253.705C205.294 253.768 206.019 253.838 206.743 253.908C206.819 253.915 206.889 253.921 206.959 253.927C207.62 253.997 208.281 254.061 208.948 254.131C212.646 254.506 216.453 254.944 220.367 255.446C222.706 255.745 225.074 256.065 227.472 256.406C231.113 256.92 234.812 257.48 238.536 258.077C242.266 258.681 246.017 259.318 249.79 259.99C250.743 260.161 251.696 260.333 252.656 260.511C253.825 260.727 254.994 260.947 256.163 261.172C256.901 261.311 257.638 261.451 258.375 261.597C259.252 261.769 260.135 261.941 261.012 262.112C266.788 263.256 272.533 264.476 278.138 265.753C279.059 265.963 279.981 266.179 280.896 266.389C282.726 266.815 284.539 267.247 286.336 267.685C286.831 267.806 287.32 267.927 287.81 268.047C289.036 268.352 290.25 268.658 291.451 268.963V268.969C291.521 268.982 291.591 269.001 291.661 269.02C292.538 269.242 293.408 269.465 294.273 269.693C296.312 270.227 298.318 270.765 300.29 271.307C301.599 271.676 302.896 272.038 304.173 272.407C306.086 272.966 307.961 273.525 309.784 274.084C310.236 274.224 310.687 274.364 311.132 274.497C312.466 274.917 313.775 275.334 315.059 275.749C316.075 276.08 317.067 276.417 318.045 276.753C319.024 277.09 319.984 277.427 320.924 277.764C321.534 277.98 322.132 278.202 322.722 278.418C323.587 278.736 324.426 279.054 325.252 279.378C325.506 279.473 325.754 279.575 326.001 279.67C326.465 279.848 326.917 280.032 327.361 280.217C327.66 280.331 327.952 280.452 328.245 280.579C328.531 280.693 328.823 280.814 329.103 280.935C329.389 281.049 329.668 281.17 329.948 281.297C330.183 281.392 330.412 281.494 330.634 281.596C331.085 281.793 331.536 281.99 331.975 282.193C332.191 282.295 332.407 282.39 332.623 282.492L333.119 282.72C333.189 282.759 333.259 282.79 333.328 282.822C333.869 283.076 334.39 283.331 334.898 283.585C335.375 283.826 335.839 284.068 336.283 284.303C336.811 284.582 337.313 284.856 337.796 285.135C337.891 285.186 337.986 285.243 338.082 285.294C338.406 285.478 338.717 285.669 339.029 285.853C339.639 286.228 340.217 286.597 340.757 286.965C341.291 287.334 341.787 287.696 342.25 288.058C342.25 288.065 342.25 288.065 342.257 288.065C342.479 288.243 342.695 288.421 342.899 288.592C343.229 288.878 343.534 289.151 343.814 289.431C343.907 289.517 343.997 289.608 344.081 289.704C344.118 289.735 344.152 289.769 344.182 289.806C344.316 289.952 344.449 290.098 344.576 290.244C344.729 290.422 344.869 290.6 345.002 290.778C345.066 290.867 345.136 290.956 345.193 291.045C345.269 291.153 345.345 291.267 345.409 291.376C345.466 291.464 345.517 291.56 345.568 291.649C345.703 291.878 345.817 292.118 345.911 292.367C345.98 292.536 346.038 292.71 346.082 292.888C346.131 293.057 346.167 293.229 346.19 293.403Z" fill="black"/>
</g>
<defs>
<clipPath id="clip0_203_240">
<rect width="500" height="363.652" fill="white" transform="translate(0.5 0.173828)"/>
</clipPath>
</defs>
</svg>
